<svg width="81" height="81" viewBox="0 0 81 81" fill="none" xmlns="http://www.w3.org/2000/svg">
<path fill-rule="evenodd" clip-rule="evenodd" d="M54.3618 40.6768L52.9476 42.091L50.1192 44.9194L49.7656 45.273L53.3012 48.8085L57.8974 44.2123L62.4936 48.8085L57.8974 53.4047L62.4936 58.0009L57.5438 62.9506L52.9476 58.3544L48.3514 62.9506L43.7552 58.3544L48.3514 53.7582L44.8159 50.2227L42.341 52.6976L40.9268 54.1118L39.8662 55.1725L38.8055 54.1118L35.27 50.5763L32.088 53.7582L36.6842 58.3544L32.088 62.9506L27.4918 58.3544L22.8956 62.9506L17.9458 58.0009L22.542 53.4047L17.9458 48.8085L22.542 44.2123L27.1382 48.8085L30.3202 45.6265L26.7847 42.091L25.724 41.0303L26.7847 39.9697L28.1989 38.5555L30.3202 36.4341L27.1382 33.2522L22.542 37.8483L17.9458 33.2522L22.542 28.656L17.9458 24.0598L22.8956 19.11L27.4918 23.7062L32.088 19.11L36.6842 23.7062L32.088 28.3024L35.27 31.4844L35.9771 30.7773L38.8055 27.9488L40.2197 26.5346L44.8159 31.1308L49.0585 26.8882L44.4623 22.292L49.0585 17.6958L53.6547 22.292L58.2509 17.6958L63.2007 22.6456L58.6045 27.2417L63.2007 31.8379L58.6045 36.4341L54.0083 31.8379L49.7656 36.0806L54.3618 40.6768Z" fill="#FEA82F"/>
</svg>
